<svg xmlns="http://www.w3.org/2000/svg" width="120" height="36" viewBox="0 0 120 36">
  <g id="logo" transform="translate(-792.415 -489.232)">
    <g id="그룹_4" data-name="그룹 4" transform="translate(792.415 489.232)">
      <g id="그룹_1" data-name="그룹 1" transform="translate(0 0.011)">
        <path id="패스_1" data-name="패스 1" d="M814.185,525.082a21.633,21.633,0,0,1-21.77-21.443V489.264H797.8v14.375a16.279,16.279,0,0,0,16.382,16.136Z" transform="translate(-792.415 -489.264)" fill="#f72d67"/>
      </g>
      <path id="패스_2" data-name="패스 2" d="M1044.238,489.232a18.074,18.074,0,0,0-18.188,17.916v18.084h5.388v-5.37a18.268,18.268,0,0,0,12.8,5.2,17.918,17.918,0,1,0,0-35.832Zm0,30.524a12.609,12.609,0,1,1,12.8-12.608A12.72,12.72,0,0,1,1044.238,519.756Z" transform="translate(-942.425 -489.232)" fill="#f72d67"/>
      <g id="그룹_2" data-name="그룹 2" transform="translate(52.39)">
        <path id="패스_3" data-name="패스 3" d="M956.971,525.061a17.917,17.917,0,1,1,18.187-17.915A18.073,18.073,0,0,1,956.971,525.061Zm0-30.521a12.609,12.609,0,1,0,12.8,12.607A12.718,12.718,0,0,0,956.971,494.54Z" transform="translate(-938.784 -489.232)" fill="#f72d67"/>
      </g>
      <g id="그룹_3" data-name="그룹 3" transform="translate(21.154)">
        <path id="패스_4" data-name="패스 4" d="M869.7,525.061a17.917,17.917,0,1,1,18.188-17.915A18.073,18.073,0,0,1,869.7,525.061Zm0-30.521a12.609,12.609,0,1,0,12.8,12.607A12.718,12.718,0,0,0,869.7,494.54Z" transform="translate(-851.516 -489.232)" fill="#f72d67"/>
      </g>
    </g>
  </g>
</svg>
