<svg id="LOGO_I" xmlns="http://www.w3.org/2000/svg" width="30" height="30" viewBox="0 0 30 30">
  <rect id="사각형_153742" data-name="사각형 153742" width="30" height="30" fill="none"/>
  <g id="그룹_132179" data-name="그룹 132179" transform="translate(-312.784 -191.143)">
    <path id="패스_2" data-name="패스 2" d="M332.1,194.905h-8.626a6.926,6.926,0,0,0-6.926,6.926v8.626a6.925,6.925,0,0,0,6.926,6.925H332.1a6.924,6.924,0,0,0,6.925-6.925v-8.626A6.925,6.925,0,0,0,332.1,194.905Zm4.768,14.724a5.6,5.6,0,0,1-5.6,5.6H324.3a5.6,5.6,0,0,1-5.6-5.6v-6.971a5.6,5.6,0,0,1,5.6-5.6h6.971a5.6,5.6,0,0,1,5.6,5.6Z" transform="translate(0 0)" fill="#777"/>
    <path id="패스_3" data-name="패스 3" d="M374.231,244.262a5.92,5.92,0,1,0,5.92,5.92A5.92,5.92,0,0,0,374.231,244.262Zm0,9.482a3.562,3.562,0,1,1,3.562-3.562A3.562,3.562,0,0,1,374.231,253.744Z" transform="translate(-46.146 -43.999)" fill="#777"/>
    <path id="패스_4" data-name="패스 4" d="M462.768,231.038a1.505,1.505,0,1,1-1.506-1.506A1.507,1.507,0,0,1,462.768,231.038Z" transform="translate(-127.667 -30.868)" fill="#777"/>
  </g>
</svg>
