<svg id="LOGO_Y" xmlns="http://www.w3.org/2000/svg" width="30" height="30" viewBox="0 0 30 30">
  <rect id="사각형_153741" data-name="사각형 153741" width="30" height="30" fill="none"/>
  <path id="빼기_2" data-name="빼기 2" d="M10.916,15.983c-.017,0-1.729,0-3.626-.06-1.115-.035-2.074-.082-2.852-.142a12.2,12.2,0,0,1-2.051-.276,2.8,2.8,0,0,1-1.93-2.019,19.983,19.983,0,0,1-.4-3.416C0,8.933,0,8,0,7.992s0-.942.057-2.08A19.983,19.983,0,0,1,.456,2.5,2.8,2.8,0,0,1,2.386.477,12.194,12.194,0,0,1,4.438.2C5.216.142,6.175.094,7.29.06,9.188,0,10.9,0,10.916,0s1.729,0,3.626.06C15.657.094,16.617.142,17.4.2a12.2,12.2,0,0,1,2.051.276A2.8,2.8,0,0,1,21.377,2.5a19.975,19.975,0,0,1,.4,3.416c.056,1.138.057,2.071.057,2.08s0,.942-.057,2.08a19.975,19.975,0,0,1-.4,3.416,2.8,2.8,0,0,1-1.93,2.019,12.2,12.2,0,0,1-2.051.276c-.778.059-1.738.107-2.852.142C12.645,15.982,10.933,15.983,10.916,15.983ZM8.733,4.566v6.85l5.672-3.425Z" transform="translate(4.083 7.009)" fill="#777" stroke="rgba(0,0,0,0)" stroke-miterlimit="10" stroke-width="1"/>
</svg>
