<svg id="LOGO_V_H" xmlns="http://www.w3.org/2000/svg" width="30" height="30" viewBox="0 0 30 30">
  <rect id="사각형_153740" data-name="사각형 153740" width="30" height="30" fill="none"/>
  <path id="패스_240588" data-name="패스 240588" d="M161.032,156.579a8.44,8.44,0,0,1-.616,3.327,23,23,0,0,1-2.882,5.07,32.191,32.191,0,0,1-5.3,6.076,7.873,7.873,0,0,1-3.458,1.849,2.473,2.473,0,0,1-2.372-.706,7.421,7.421,0,0,1-1.841-3.331c-.666-2.325-1.283-4.665-1.926-7a11.018,11.018,0,0,0-.849-2.233,4.855,4.855,0,0,0-.258-.44c-.557-.828-.932-.911-1.776-.385-.3.186-.6.381-.882.587-.158.113-.262.12-.386-.049-.255-.348-.525-.685-.795-1.022-.107-.133-.131-.241.017-.366a64.614,64.614,0,0,1,4.955-4.223,3.583,3.583,0,0,1,2.171-.8,2.442,2.442,0,0,1,2,1.058,5.976,5.976,0,0,1,.952,2.592c.356,2.127.637,4.268,1.174,6.361a8.222,8.222,0,0,0,.739,2.021c.436.775.911.875,1.511.234a13.5,13.5,0,0,0,2.91-4.795,3.215,3.215,0,0,0,.132-1.242,1.3,1.3,0,0,0-1.307-1.341,4.017,4.017,0,0,0-1.622.218c-.241.082-.358.042-.26-.247a7.9,7.9,0,0,1,2.518-3.9,5.8,5.8,0,0,1,5.086-1.038,3.011,3.011,0,0,1,2.24,2.738C160.97,155.935,161,156.275,161.032,156.579Z" transform="translate(-134.32 -147.82)" fill="#f72d67"/>
</svg>
